<svg xmlns="http://www.w3.org/2000/svg" xmlns:xlink="http://www.w3.org/1999/xlink" version="1.1" x="0px" y="0px" viewBox="0 0 100 100" enable-background="new 0 0 100 100" xml:space="preserve">
    <g fill="#CFD8DC">
        <path d="M7.9,41.5c0,10.1,4.9,19.8,13.1,25.7l-3.3,4.5c-9.7-7-15.4-18.3-15.4-30.2C2.3,20.9,19,4.1,39.6,4.1V0.9  c0-0.3,0.4-0.6,0.7-0.4l8.8,6c0.3,0.2,0.3,0.5,0,0.7l-8.8,6c-0.3,0.2-0.7,0-0.7-0.4V9.7C22.1,9.7,7.9,24,7.9,41.5z M69.8,82.3l15,15  c2.9,2.9,7.7,2.9,10.7,0v0c2.9-2.9,2.9-7.7,0-10.7l-15-15c-2.2-2.2-5.3-2.7-8-1.7l-4.4-4.4c5.5-6.5,8.8-14.9,8.8-24  c0-11.9-5.8-23.2-15.4-30.2l-3.3,4.5c8.2,6,13.1,15.6,13.1,25.7c0,17.5-14.2,31.8-31.8,31.8h0V70c0-0.3-0.4-0.6-0.7-0.4l-8.8,6  c-0.3,0.2-0.3,0.5,0,0.7l8.8,6c0.3,0.2,0.7,0,0.7-0.4v-3.2h0c9.2,0,17.6-3.3,24.1-8.8l4.4,4.4C67.1,77,67.7,80.2,69.8,82.3z   M29.4,56.8c1.7,0.8,3.6,1.3,5.5,1.6c1.5,0.2,1.5,0.3,1.6,1.8c0,0.7,0,1.4,0,2.1c0,0.9,0.4,1.4,1.3,1.4c1,0,2.1,0,3.1,0  c0.8,0,1.3-0.5,1.3-1.3c0-1,0-1.9,0-2.9c0-1,0.4-1.5,1.3-1.7c2.2-0.6,4-1.8,5.4-3.5c3.9-4.8,2.4-11.8-3.1-14.9  c-1.7-1-3.6-1.7-5.4-2.5c-1.1-0.4-2.1-1-3-1.7c-1.8-1.4-1.4-3.7,0.6-4.6c0.6-0.3,1.2-0.3,1.8-0.4c2.4-0.1,4.7,0.3,6.9,1.4  c1.1,0.5,1.4,0.4,1.8-0.8c0.4-1.2,0.7-2.4,1.1-3.6c0.2-0.8-0.1-1.3-0.8-1.7c-1.4-0.6-2.8-1.1-4.3-1.3c-2-0.3-2-0.3-2-2.3  c0-2.8,0-2.8-2.8-2.8c-0.4,0-0.8,0-1.2,0c-1.3,0-1.5,0.3-1.6,1.6c0,0.6,0,1.2,0,1.8c0,1.7,0,1.7-1.7,2.3c-4,1.5-6.5,4.2-6.8,8.6  c-0.2,3.9,1.8,6.5,5,8.5c2,1.2,4.2,1.9,6.3,2.8c0.8,0.4,1.6,0.8,2.3,1.3c2,1.7,1.6,4.4-0.7,5.5c-1.3,0.6-2.6,0.7-4,0.5  C35,51.9,33,51.3,31,50.3c-1.1-0.6-1.5-0.4-1.8,0.8c-0.3,1.1-0.6,2.1-0.9,3.2C27.9,55.8,28,56.1,29.4,56.8z"></path>
    </g>
</svg>